<mxfile host="app.diagrams.net" agent="Mozilla/5.0 (Macintosh; Intel Mac OS X 10_15_7) AppleWebKit/537.36 (KHTML, like Gecko) Chrome/127.0.0.0 Safari/537.36 Edg/127.0.0.0" version="24.7.7">
  <diagram id="prtHgNgQTEPvFCAcTncT" name="Page-1">
    <mxGraphModel dx="1066" dy="674" grid="1" gridSize="10" guides="1" tooltips="1" connect="1" arrows="1" fold="1" page="1" pageScale="1" pageWidth="827" pageHeight="1169" math="0" shadow="0">
      <root>
        <mxCell id="0" />
        <mxCell id="1" parent="0" />
        <mxCell id="dNxyNK7c78bLwvsdeMH5-19" value="Service" style="swimlane;html=1;childLayout=stackLayout;resizeParent=1;resizeParentMax=0;horizontal=0;startSize=20;horizontalStack=0;" parent="1" vertex="1">
          <mxGeometry x="100" y="80" width="1260" height="475" as="geometry" />
        </mxCell>
        <mxCell id="3QaK9X_xWefMJjQvL3ul-9" style="edgeStyle=orthogonalEdgeStyle;rounded=0;orthogonalLoop=1;jettySize=auto;html=1;exitX=0.5;exitY=1;exitDx=0;exitDy=0;entryX=0.5;entryY=0;entryDx=0;entryDy=0;" edge="1" parent="dNxyNK7c78bLwvsdeMH5-19" source="3QaK9X_xWefMJjQvL3ul-4" target="3QaK9X_xWefMJjQvL3ul-7">
          <mxGeometry relative="1" as="geometry" />
        </mxCell>
        <mxCell id="3QaK9X_xWefMJjQvL3ul-10" style="edgeStyle=orthogonalEdgeStyle;rounded=0;orthogonalLoop=1;jettySize=auto;html=1;exitX=0.5;exitY=1;exitDx=0;exitDy=0;entryX=0.5;entryY=0;entryDx=0;entryDy=0;" edge="1" parent="dNxyNK7c78bLwvsdeMH5-19" source="3QaK9X_xWefMJjQvL3ul-6" target="3QaK9X_xWefMJjQvL3ul-8">
          <mxGeometry relative="1" as="geometry" />
        </mxCell>
        <mxCell id="dNxyNK7c78bLwvsdeMH5-20" value="StoreHub" style="swimlane;html=1;startSize=20;horizontal=0;fillColor=#dae8fc;strokeColor=#6c8ebf;" parent="dNxyNK7c78bLwvsdeMH5-19" vertex="1">
          <mxGeometry x="20" width="1240" height="265" as="geometry" />
        </mxCell>
        <mxCell id="3QaK9X_xWefMJjQvL3ul-49" style="edgeStyle=orthogonalEdgeStyle;rounded=0;orthogonalLoop=1;jettySize=auto;html=1;exitX=1;exitY=0.5;exitDx=0;exitDy=0;entryX=0.5;entryY=0;entryDx=0;entryDy=0;" edge="1" parent="dNxyNK7c78bLwvsdeMH5-20" source="dNxyNK7c78bLwvsdeMH5-23" target="3QaK9X_xWefMJjQvL3ul-6">
          <mxGeometry relative="1" as="geometry" />
        </mxCell>
        <mxCell id="3QaK9X_xWefMJjQvL3ul-50" style="edgeStyle=orthogonalEdgeStyle;rounded=0;orthogonalLoop=1;jettySize=auto;html=1;exitX=1;exitY=0.5;exitDx=0;exitDy=0;entryX=0;entryY=0.5;entryDx=0;entryDy=0;" edge="1" parent="dNxyNK7c78bLwvsdeMH5-20" source="dNxyNK7c78bLwvsdeMH5-23" target="3QaK9X_xWefMJjQvL3ul-24">
          <mxGeometry relative="1" as="geometry">
            <Array as="points">
              <mxPoint x="410" y="30" />
              <mxPoint x="410" y="95" />
            </Array>
          </mxGeometry>
        </mxCell>
        <mxCell id="3QaK9X_xWefMJjQvL3ul-51" style="edgeStyle=orthogonalEdgeStyle;rounded=0;orthogonalLoop=1;jettySize=auto;html=1;exitX=1;exitY=0.5;exitDx=0;exitDy=0;entryX=0;entryY=0.5;entryDx=0;entryDy=0;" edge="1" parent="dNxyNK7c78bLwvsdeMH5-20" source="dNxyNK7c78bLwvsdeMH5-23" target="3QaK9X_xWefMJjQvL3ul-25">
          <mxGeometry relative="1" as="geometry">
            <Array as="points">
              <mxPoint x="410" y="30" />
              <mxPoint x="410" y="165" />
            </Array>
          </mxGeometry>
        </mxCell>
        <mxCell id="dNxyNK7c78bLwvsdeMH5-23" value="start" style="ellipse;whiteSpace=wrap;html=1;fillColor=#dae8fc;strokeColor=#6c8ebf;" parent="dNxyNK7c78bLwvsdeMH5-20" vertex="1">
          <mxGeometry x="40" y="10" width="40" height="40" as="geometry" />
        </mxCell>
        <mxCell id="3QaK9X_xWefMJjQvL3ul-3" value="" style="group" vertex="1" connectable="0" parent="dNxyNK7c78bLwvsdeMH5-20">
          <mxGeometry x="680" y="80" width="200" height="80" as="geometry" />
        </mxCell>
        <mxCell id="3QaK9X_xWefMJjQvL3ul-2" value="Process Hub Shipping Type" style="rounded=1;whiteSpace=wrap;html=1;absoluteArcSize=1;arcSize=14;strokeWidth=2;fillColor=#dae8fc;strokeColor=#6c8ebf;" vertex="1" parent="3QaK9X_xWefMJjQvL3ul-3">
          <mxGeometry y="20" width="180" height="60" as="geometry" />
        </mxCell>
        <mxCell id="3QaK9X_xWefMJjQvL3ul-1" value="" style="sketch=0;points=[[0,0,0],[0.25,0,0],[0.5,0,0],[0.75,0,0],[1,0,0],[0,1,0],[0.25,1,0],[0.5,1,0],[0.75,1,0],[1,1,0],[0,0.25,0],[0,0.5,0],[0,0.75,0],[1,0.25,0],[1,0.5,0],[1,0.75,0]];outlineConnect=0;fontColor=#232F3E;fillColor=#E7157B;strokeColor=#ffffff;dashed=0;verticalLabelPosition=bottom;verticalAlign=top;align=center;html=1;fontSize=12;fontStyle=0;aspect=fixed;shape=mxgraph.aws4.resourceIcon;resIcon=mxgraph.aws4.sqs;" vertex="1" parent="3QaK9X_xWefMJjQvL3ul-3">
          <mxGeometry x="160" width="40" height="40" as="geometry" />
        </mxCell>
        <mxCell id="3QaK9X_xWefMJjQvL3ul-4" value="create-hub" style="html=1;dashed=0;whiteSpace=wrap;fillColor=#dae8fc;strokeColor=#6c8ebf;" vertex="1" parent="dNxyNK7c78bLwvsdeMH5-20">
          <mxGeometry x="150" y="70" width="100" height="50" as="geometry" />
        </mxCell>
        <mxCell id="3QaK9X_xWefMJjQvL3ul-5" value="" style="edgeStyle=orthogonalEdgeStyle;rounded=0;orthogonalLoop=1;jettySize=auto;html=1;entryX=0;entryY=0.5;entryDx=0;entryDy=0;" edge="1" parent="dNxyNK7c78bLwvsdeMH5-20" source="dNxyNK7c78bLwvsdeMH5-23" target="3QaK9X_xWefMJjQvL3ul-4">
          <mxGeometry relative="1" as="geometry">
            <mxPoint x="220" y="180" as="sourcePoint" />
            <mxPoint x="660" y="180" as="targetPoint" />
          </mxGeometry>
        </mxCell>
        <mxCell id="3QaK9X_xWefMJjQvL3ul-6" value="update-hub" style="html=1;dashed=0;whiteSpace=wrap;fillColor=#dae8fc;strokeColor=#6c8ebf;" vertex="1" parent="dNxyNK7c78bLwvsdeMH5-20">
          <mxGeometry x="290" y="70" width="100" height="50" as="geometry" />
        </mxCell>
        <mxCell id="3QaK9X_xWefMJjQvL3ul-18" value="&lt;font color=&quot;#cc0000&quot;&gt;ส่ง enable = &#39;N&#39; และ&amp;nbsp;&lt;/font&gt;&lt;div&gt;&lt;font color=&quot;#cc0000&quot;&gt;is delete = &#39;N&#39; เพื่อให้ร้านยังใช้งานไม่ได้&lt;/font&gt;&lt;/div&gt;" style="shape=note2;boundedLbl=1;whiteSpace=wrap;html=1;size=25;verticalAlign=top;align=center;" vertex="1" parent="dNxyNK7c78bLwvsdeMH5-20">
          <mxGeometry x="70" y="160" width="120" height="90" as="geometry" />
        </mxCell>
        <mxCell id="3QaK9X_xWefMJjQvL3ul-19" value="&lt;font color=&quot;#cc0000&quot;&gt;ส่ง enable = &#39;N&#39; และ&amp;nbsp;&lt;/font&gt;&lt;div&gt;&lt;font color=&quot;#cc0000&quot;&gt;is delete = &#39;N&#39; เพื่อให้ร้านยังใช้งานไม่ได้&lt;/font&gt;&lt;/div&gt;" style="shape=note2;boundedLbl=1;whiteSpace=wrap;html=1;size=25;verticalAlign=top;align=center;" vertex="1" parent="dNxyNK7c78bLwvsdeMH5-20">
          <mxGeometry x="214" y="160" width="120" height="90" as="geometry" />
        </mxCell>
        <mxCell id="3QaK9X_xWefMJjQvL3ul-27" style="edgeStyle=orthogonalEdgeStyle;rounded=0;orthogonalLoop=1;jettySize=auto;html=1;exitX=1;exitY=0.5;exitDx=0;exitDy=0;entryX=0;entryY=0.5;entryDx=0;entryDy=0;" edge="1" parent="dNxyNK7c78bLwvsdeMH5-20" target="3QaK9X_xWefMJjQvL3ul-2">
          <mxGeometry relative="1" as="geometry">
            <mxPoint x="580" y="80" as="sourcePoint" />
          </mxGeometry>
        </mxCell>
        <mxCell id="3QaK9X_xWefMJjQvL3ul-24" value="ผูกโครงการ / โครงการ Darkstore" style="html=1;dashed=0;whiteSpace=wrap;fillColor=#dae8fc;strokeColor=#6c8ebf;" vertex="1" parent="dNxyNK7c78bLwvsdeMH5-20">
          <mxGeometry x="440" y="70" width="140" height="50" as="geometry" />
        </mxCell>
        <mxCell id="3QaK9X_xWefMJjQvL3ul-29" style="edgeStyle=orthogonalEdgeStyle;rounded=0;orthogonalLoop=1;jettySize=auto;html=1;exitX=1;exitY=0.5;exitDx=0;exitDy=0;entryX=0;entryY=0.5;entryDx=0;entryDy=0;" edge="1" parent="dNxyNK7c78bLwvsdeMH5-20" source="3QaK9X_xWefMJjQvL3ul-25" target="3QaK9X_xWefMJjQvL3ul-2">
          <mxGeometry relative="1" as="geometry" />
        </mxCell>
        <mxCell id="3QaK9X_xWefMJjQvL3ul-25" value="ผูกร้านลูก / ร้านลูก Darkstore" style="html=1;dashed=0;whiteSpace=wrap;fillColor=#dae8fc;strokeColor=#6c8ebf;" vertex="1" parent="dNxyNK7c78bLwvsdeMH5-20">
          <mxGeometry x="440" y="140" width="140" height="50" as="geometry" />
        </mxCell>
        <mxCell id="3QaK9X_xWefMJjQvL3ul-46" value="&lt;font color=&quot;#cc0000&quot;&gt;ส่งข้อมูลไป update-merchant เฉพาะ hub ที่มี shippingTypeId 2,3 และ ปรับ enable = &#39;Y&#39; และ is_delete = &#39;N&#39; เพื่อให้ร้านมีผลใช้งานได้&lt;/font&gt;" style="shape=note2;boundedLbl=1;whiteSpace=wrap;html=1;size=25;verticalAlign=top;align=center;" vertex="1" parent="dNxyNK7c78bLwvsdeMH5-20">
          <mxGeometry x="780" y="170" width="410" height="80" as="geometry" />
        </mxCell>
        <mxCell id="3QaK9X_xWefMJjQvL3ul-52" value="&lt;font color=&quot;#cc0000&quot;&gt;เพิ่ม Logic การส่งข้อมูล hub master ที่มี shippingTypeId เป็น 2,3 โดยส่งไป update-merchant เหมือนตอนที่หน้าเว็บส่งไป update โดยไม่ต้องสนใจรอบการจัดส่ง&lt;/font&gt;" style="shape=note2;boundedLbl=1;whiteSpace=wrap;html=1;size=25;verticalAlign=top;align=center;" vertex="1" parent="dNxyNK7c78bLwvsdeMH5-20">
          <mxGeometry x="890" y="30" width="294" height="100" as="geometry" />
        </mxCell>
        <mxCell id="3QaK9X_xWefMJjQvL3ul-30" style="edgeStyle=orthogonalEdgeStyle;rounded=0;orthogonalLoop=1;jettySize=auto;html=1;exitX=0.5;exitY=1;exitDx=0;exitDy=0;entryX=1;entryY=0.5;entryDx=0;entryDy=0;" edge="1" parent="dNxyNK7c78bLwvsdeMH5-19" source="3QaK9X_xWefMJjQvL3ul-2" target="3QaK9X_xWefMJjQvL3ul-8">
          <mxGeometry relative="1" as="geometry" />
        </mxCell>
        <mxCell id="dNxyNK7c78bLwvsdeMH5-21" value="OSH" style="swimlane;html=1;startSize=20;horizontal=0;fillColor=#ffe6cc;strokeColor=#d79b00;" parent="dNxyNK7c78bLwvsdeMH5-19" vertex="1">
          <mxGeometry x="20" y="265" width="1240" height="210" as="geometry" />
        </mxCell>
        <mxCell id="3QaK9X_xWefMJjQvL3ul-7" value="create-merchant" style="html=1;dashed=0;whiteSpace=wrap;fillColor=#ffe6cc;strokeColor=#d79b00;" vertex="1" parent="dNxyNK7c78bLwvsdeMH5-21">
          <mxGeometry x="150" y="70" width="100" height="50" as="geometry" />
        </mxCell>
        <mxCell id="3QaK9X_xWefMJjQvL3ul-8" value="update-merchant" style="html=1;dashed=0;whiteSpace=wrap;fillColor=#ffe6cc;strokeColor=#d79b00;" vertex="1" parent="dNxyNK7c78bLwvsdeMH5-21">
          <mxGeometry x="290" y="70" width="100" height="50" as="geometry" />
        </mxCell>
        <mxCell id="3QaK9X_xWefMJjQvL3ul-20" value="&lt;font style=&quot;font-size: 11px;&quot; color=&quot;#cc0000&quot;&gt;ปรับให้รองรับ req.body หลายตัว Array() และเพิ่มการ update column enable และ is_delete&lt;/font&gt;" style="shape=note2;boundedLbl=1;whiteSpace=wrap;html=1;size=25;verticalAlign=top;align=center;" vertex="1" parent="dNxyNK7c78bLwvsdeMH5-21">
          <mxGeometry x="290" y="125" width="240" height="70" as="geometry" />
        </mxCell>
        <mxCell id="3QaK9X_xWefMJjQvL3ul-53" value="&lt;font style=&quot;font-size: 11px;&quot; color=&quot;#cc0000&quot;&gt;เพิ่มการ update column enable และ is_delete&lt;/font&gt;" style="shape=note2;boundedLbl=1;whiteSpace=wrap;html=1;size=25;verticalAlign=top;align=center;" vertex="1" parent="dNxyNK7c78bLwvsdeMH5-21">
          <mxGeometry x="90" y="125" width="160" height="70" as="geometry" />
        </mxCell>
      </root>
    </mxGraphModel>
  </diagram>
</mxfile>
